<svg xmlns="http://www.w3.org/2000/svg" xmlns:xlink="http://www.w3.org/1999/xlink" contentStyleType="text/css" height="544px" preserveAspectRatio="none" style="width:1827px;height:544px;background:#FFFFFF;" version="1.1" viewBox="0 0 1827 544" width="1827px" zoomAndPan="magnify"><defs/><g><!--cluster Symbolic--><g id="cluster_Symbolic"><path d="M19.5,97 L1482.5,97 A12.5,12.5 0 0 1 1495,109.5 L1495,118.2969 L7,118.2969 L7,109.5 A12.5,12.5 0 0 1 19.5,97 " fill="#FDF6E3" style="stroke:#FDF6E3;stroke-width:1.0;"/><rect fill="none" height="441.46" rx="12.5" ry="12.5" style="stroke:#657B83;stroke-width:0.5;" width="1488" x="7" y="97"/><line style="stroke:#657B83;stroke-width:0.5;" x1="7" x2="1495" y1="118.2969" y2="118.2969"/><text fill="#000000" font-family="Courier New" font-size="14" lengthAdjust="spacing" textLength="61" x="720.5" y="113.9951">Symbolic</text></g><!--cluster Collapsing--><g id="cluster_Collapsing"><path d="M59.5,156 L642.5,156 A12.5,12.5 0 0 1 655,168.5 L655,177.2969 L47,177.2969 L47,168.5 A12.5,12.5 0 0 1 59.5,156 " fill="#FDF6E3" style="stroke:#FDF6E3;stroke-width:1.0;"/><rect fill="none" height="342.46" rx="12.5" ry="12.5" style="stroke:#657B83;stroke-width:0.5;" width="608" x="47" y="156"/><line style="stroke:#657B83;stroke-width:0.5;" x1="47" x2="655" y1="177.2969" y2="177.2969"/><text fill="#000000" font-family="Courier New" font-size="14" lengthAdjust="spacing" textLength="71" x="315.5" y="172.9951">Collapsing</text></g><!--cluster Classical--><g id="cluster_Classical"><path d="M301.5,317.06 L602.5,317.06 A12.5,12.5 0 0 1 615,329.56 L615,338.3569 L289,338.3569 L289,329.56 A12.5,12.5 0 0 1 301.5,317.06 " fill="#FDF6E3" style="stroke:#FDF6E3;stroke-width:1.0;"/><rect fill="none" height="141.4" rx="12.5" ry="12.5" style="stroke:#657B83;stroke-width:0.5;" width="326" x="289" y="317.06"/><line style="stroke:#657B83;stroke-width:0.5;" x1="289" x2="615" y1="338.3569" y2="338.3569"/><text fill="#000000" font-family="Courier New" font-size="14" lengthAdjust="spacing" textLength="59" x="422.5" y="334.0551">Classical</text></g><!--cluster Warning_Uncollapsed--><g id="cluster_Warning_Uncollapsed"><path d="M707.5,317.06 L1109.5,317.06 A12.5,12.5 0 0 1 1122,329.56 L1122,338.3569 L695,338.3569 L695,329.56 A12.5,12.5 0 0 1 707.5,317.06 " fill="#FDF6E3" style="stroke:#FDF6E3;stroke-width:1.0;"/><rect fill="none" height="141.4" rx="12.5" ry="12.5" style="stroke:#657B83;stroke-width:0.5;" width="427" x="695" y="317.06"/><line style="stroke:#657B83;stroke-width:0.5;" x1="695" x2="1122" y1="338.3569" y2="338.3569"/><text fill="#000000" font-family="Courier New" font-size="14" lengthAdjust="spacing" textLength="148" x="834.5" y="334.0551">Warning_Uncollapsed</text></g><g id="elem_GMN5"><path d="M853,174.66 L853,230.0584 L1127,230.0584 L1127,184.66 L1117,174.66 L853,174.66 " fill="#FEFFDD" style="stroke:#181818;stroke-width:0.5;"/><path d="M1117,174.66 L1117,184.66 L1127,184.66 L1117,174.66 " fill="#FEFFDD" style="stroke:#181818;stroke-width:1.0;"/><text fill="#000000" font-family="sans-serif" font-size="13" lengthAdjust="spacing" textLength="105" x="859" y="191.7269">- Deferred token</text><text fill="#000000" font-family="sans-serif" font-size="13" lengthAdjust="spacing" textLength="253" x="859" y="206.8597">- value stored as AST / expression node</text><text fill="#000000" font-family="sans-serif" font-size="13" lengthAdjust="spacing" textLength="110" x="859" y="221.9925">- collapse = false</text></g><g id="elem_GMN13"><path d="M70.5,371.5 L70.5,442.0313 L265.5,442.0313 L265.5,381.5 L255.5,371.5 L70.5,371.5 " fill="#FEFFDD" style="stroke:#181818;stroke-width:0.5;"/><path d="M255.5,371.5 L255.5,381.5 L265.5,381.5 L255.5,371.5 " fill="#FEFFDD" style="stroke:#181818;stroke-width:1.0;"/><text fill="#000000" font-family="sans-serif" font-size="13" lengthAdjust="spacing" textLength="174" x="76.5" y="388.5669">- Evaluate AST / expression</text><text fill="#000000" font-family="sans-serif" font-size="13" lengthAdjust="spacing" textLength="107" x="76.5" y="403.6997">- Memoize result</text><text fill="#000000" font-family="sans-serif" font-size="13" lengthAdjust="spacing" textLength="144" x="76.5" y="418.8325">- In-place replacement</text><text fill="#000000" font-family="sans-serif" font-size="13" lengthAdjust="spacing" textLength="124" x="76.5" y="433.9653">- Identity preserved</text></g><g id="elem_GMN18"><path d="M312.5,379.06 L312.5,434.4584 L571.5,434.4584 L571.5,389.06 L561.5,379.06 L312.5,379.06 " fill="#FEFFDD" style="stroke:#181818;stroke-width:0.5;"/><path d="M561.5,379.06 L561.5,389.06 L571.5,389.06 L561.5,379.06 " fill="#FEFFDD" style="stroke:#181818;stroke-width:1.0;"/><text fill="#000000" font-family="sans-serif" font-size="13" lengthAdjust="spacing" textLength="147" x="318.5" y="396.1269">- Permanently classical</text><text fill="#000000" font-family="sans-serif" font-size="13" lengthAdjust="spacing" textLength="147" x="318.5" y="411.2597">- behaves like := token</text><text fill="#000000" font-family="sans-serif" font-size="13" lengthAdjust="spacing" textLength="238" x="318.5" y="426.3925">- cannot collapse again automatically</text></g><g id="elem_GMN22"><path d="M719,379.06 L719,434.4584 L1079,434.4584 L1079,389.06 L1069,379.06 L719,379.06 " fill="#FEFFDD" style="stroke:#181818;stroke-width:0.5;"/><path d="M1069,379.06 L1069,389.06 L1079,389.06 L1069,379.06 " fill="#FEFFDD" style="stroke:#181818;stroke-width:1.0;"/><text fill="#000000" font-family="sans-serif" font-size="13" lengthAdjust="spacing" textLength="339" x="725" y="396.1269">- Symbolic token never used in classical computation</text><text fill="#000000" font-family="sans-serif" font-size="13" lengthAdjust="spacing" textLength="285" x="725" y="411.2597">- Emit warning: "Uncollapsed symbolic value"</text><text fill="#000000" font-family="sans-serif" font-size="13" lengthAdjust="spacing" textLength="260" x="725" y="426.3925">- token remains symbolic until re-binding</text></g><ellipse cx="1162" cy="16" fill="#222222" rx="10" ry="10" style="stroke:#222222;stroke-width:1.0;"/><!--link *start* to Symbolic--><g id="link_*start*_Symbolic"><path d="M1162,26.4 C1162,35.645 1162,50.9356 1162,68.7364 C1162,77.6368 1162,81.1647 1162,90.8783 " fill="none" id="*start*-to-Symbolic" style="stroke:#181818;stroke-width:1.0;"/><polygon fill="#181818" points="1162,96.8783,1166,87.8783,1162,91.8783,1158,87.8783,1162,96.8783" style="stroke:#181818;stroke-width:1.0;"/><text fill="#000000" font-family="sans-serif" font-size="13" lengthAdjust="spacing" textLength="137" x="1163" y="69.0669">token created with =:</text></g><!--link Symbolic to GMN5--><g id="link_Symbolic_GMN5"><path d="M1161.19,202.36 C1149.93,202.36 1138.66,202.36 1127.4,202.36 " fill="none" id="Symbolic-GMN5" style="stroke:#181818;stroke-width:1.0;stroke-dasharray:7.0,7.0;"/></g><!--link Symbolic to Collapsing--><g id="link_Symbolic_Collapsing"><path d="M1156.2666,96.8424 C1156.0249,96.5854 1155.7798,96.3306 1155.5314,96.078 C1155.0346,95.5728 1154.5242,95.0767 1154,94.59 C1113.04,56.56 691.25,55.81 651,94.59 C642.775,102.515 638.2425,112.7825 636.1098,123.8261 C635.0435,129.3479 634.5771,135.0637 634.5492,140.7778 C634.5352,143.6348 634.6308,146.4914 634.8158,149.323 C634.9083,150.7388 635.0231,152.1484 635.1578,153.5487 C635.2251,154.2489 634.6374,148.9831 634.7143,149.6783 " fill="none" id="Symbolic-to-Collapsing" style="stroke:#181818;stroke-width:1.0;"/><polygon fill="#181818" points="635.3743,155.6419,638.36,146.2565,634.8243,150.6722,630.4086,147.1365,635.3743,155.6419" style="stroke:#181818;stroke-width:1.0;"/><text fill="#000000" font-family="sans-serif" font-size="13" lengthAdjust="spacing" textLength="232" x="786" y="69.0669">participates in classical computation</text></g><!--link Symbolic to Warning_Uncollapsed--><g id="link_Symbolic_Warning_Uncollapsed"><path d="M1161.97,203.51 C1161.25,206.525 1149.6175,255.5675 1137.9888,304.5988 C1135.0816,316.8566 1132.1746,329.1137 1129.4385,340.6507 C1128.0704,346.4192 1126.745,352.0078 1125.4836,357.3263 C1124.853,359.9856 1124.2383,362.5774 1123.6423,365.0905 C1123.3443,366.3471 1123.051,367.5839 1122.7626,368.7997 C1122.6185,369.4076 1122.4755,370.0102 1122.3339,370.6074 C1122.2631,370.9059 1123.5772,365.3651 1123.507,365.6609 " fill="none" id="Symbolic-to-Warning_Uncollapsed" style="stroke:#181818;stroke-width:1.0;"/><polygon fill="#181818" points="1122.1225,371.499,1128.0913,363.6649,1123.2763,366.6339,1120.3072,361.8189,1122.1225,371.499" style="stroke:#181818;stroke-width:1.0;"/><text fill="#000000" font-family="sans-serif" font-size="13" lengthAdjust="spacing" textLength="169" x="1148.82" y="273.1269">scope exit &amp; not collapsed</text></g><!--link Symbolic to Symbolic--><g id="link_Symbolic_Symbolic"><path d="M1478,201.98 C1489.87,185.81 1513.08,185.94 1513.08,202.36 C1513.08,218.78 1493.4219,223.7457 1481.5519,207.5857 " fill="none" id="Symbolic-to-Symbolic" style="stroke:#181818;stroke-width:1.0;"/><polygon fill="#181818" points="1478,202.75,1480.1041,212.3715,1480.96,206.7797,1486.5517,207.6355,1478,202.75" style="stroke:#181818;stroke-width:1.0;"/><text fill="#000000" font-family="sans-serif" font-size="13" lengthAdjust="spacing" textLength="295" x="1519.08" y="206.9269">explicit re-binding (=:) # keeps symbolic state</text></g><!--link Warning_Uncollapsed to GMN13--><g id="link_Warning_Uncollapsed_GMN13"><path d="M1114.807,316.4099 C1114.7561,316.1601 1114.7047,315.9105 1114.6526,315.661 C1112.9861,307.6774 1110.6791,299.8652 1107.5517,292.5622 C1101.2969,277.9563 1091.76,265.3875 1077.5,257.56 C1040.34,237.16 353.59,241.16 314.5,257.56 C259.94,280.46 215.46,334.68 190.35,371.06 " fill="none" id="Warning_Uncollapsed-GMN13" style="stroke:#181818;stroke-width:1.0;stroke-dasharray:7.0,7.0;"/></g><!--link Collapsing to Classical--><g id="link_Collapsing_Classical"><path d="M646.86,203.37 C640.97,203.86 452.35,219.87 421,260.06 C416.35,266.02 415.79,271.59 421,277.06 C433.74,290.43 573.21,272.78 587,285.06 C591.9975,289.5088 596.068,294.6902 599.3639,300.3566 C601.0118,303.1898 602.4661,306.1442 603.7458,309.189 C604.3857,310.7113 604.9819,312.2563 605.5369,313.8199 C605.8143,314.6018 606.0815,315.3883 606.3386,316.179 C606.4029,316.3766 604.648,310.8568 604.711,311.055 " fill="none" id="Collapsing-to-Classical" style="stroke:#181818;stroke-width:1.0;"/><polygon fill="#181818" points="606.5296,316.7728,607.6135,306.9837,605.0141,312.008,599.9899,309.4086,606.5296,316.7728" style="stroke:#181818;stroke-width:1.0;"/><text fill="#000000" font-family="sans-serif" font-size="13" lengthAdjust="spacing" textLength="116" x="422" y="273.1269">collapse complete</text></g><!--link Classical to GMN18--><g id="link_Classical_GMN18"><path d="M606.18,406.76 C594.74,406.76 583.31,406.76 571.87,406.76 " fill="none" id="Classical-GMN18" style="stroke:#181818;stroke-width:1.0;stroke-dasharray:7.0,7.0;"/></g><!--link Classical to Symbolic--><g id="link_Classical_Symbolic"><path d="M615.0711,388.6692 C615.3647,388.0921 615.6661,387.5037 615.9751,386.9043 C616.5931,385.7057 617.2419,384.4635 617.9211,383.1819 C619.2796,380.6188 620.7596,377.8979 622.3583,375.0522 C625.5557,369.3608 629.2278,363.17 633.3513,356.7425 C649.845,331.0325 673.56,301.535 703,285.06 C725.03,272.74 1134.7,246.33 1154,230.06 C1163.17,222.33 1162.5152,210.5042 1162.4352,209.4042 " fill="none" id="Classical-to-Symbolic" style="stroke:#181818;stroke-width:1.0;"/><polygon fill="#181818" points="1162,203.42,1158.6634,212.6864,1162.3627,208.4068,1166.6423,212.1061,1162,203.42" style="stroke:#181818;stroke-width:1.0;"/><text fill="#000000" font-family="sans-serif" font-size="13" lengthAdjust="spacing" textLength="207" x="917.62" y="273.1269">explicit re-binding (=:) # allowed</text></g><!--link GMN18 to GMN22--><g id="link_GMN18_GMN22"><path d="M454.84,378.73 C478.83,330.98 534.5,240.55 605.5,257.56 C703.06,280.93 804.79,342.38 859.13,378.71 " fill="none" id="GMN18-GMN22" style="stroke:#181818;stroke-width:1.0;stroke-dasharray:7.0,7.0;"/></g><!--SRC=[ZLDDQnin4BtlhnWSA6rXoQ4aBGik94uCEJGKqj93AMKiJMon-bWahLstvBztjBjM56DAJwkTZ_VUl952gso77Ws4Y97WJmLmZQ9TUzTRkN3QUJXRtYmlRz-bZFEI_1Izl7X__I55byx6UpG4iuNhlI8FzxIRLKzLzVtj3wZhZ_2mDokdbO06ecl9Wl34R19sAcvWtbJLo9xhaWphEEBLUXFv1w266teaxxbhm9Y2MzGziNYN4XZWwk4Bd0FzwZo5e9nb64bJhN1QOnS8vl28EgGmMJaGLNpEx4doOgnLTisYsQ6eXEfOOm35yZKok43DaARhMJip7IDyGs-v_UTNU-2L31M4wuZrgGYl4dCM9O_x2zDu73vmYwTwfQnCgbxFcpTm1YrH5o0SQWSVa_MZeSKK9oszJVQbmcFRflmdCaxzvXuAlJuqtTcwqoXITFWQiZab-QpY7X8E-UqmLUbn8MXmEHlPF6ydUQhfnHYvxEGKdyaRjCoizy-hcN8hsk2MjwPLIz3CNzmTWRRS0E0QURdOHsTueuoXzyVoiv3_tn33k1qRaQSvTJ5EpfNnnqTZQSjlgq_b_xY3mreDAzcDD0tCIg9yKuQ7CviQHW9FXWqeRbFFozJ5IAKRJty1]--></g></svg>